<svg height="457pt" viewBox="0 0 457 457.14286" width="457pt" xmlns="http://www.w3.org/2000/svg"><path d="m435.898438 0h-414.636719c-11.6875 0-21.1914065 9.503906-21.1914065 21.191406v414.757813c0 11.6875 9.5039065 21.195312 21.1914065 21.195312h414.636719c11.6875 0 21.191406-9.507812 21.191406-21.195312v-414.757813c0-11.6875-9.503906-21.191406-21.191406-21.191406zm2.90625 435.949219c0 1.605469-1.304688 2.90625-2.90625 2.90625h-414.636719c-1.601563 0-2.90625-1.300781-2.90625-2.90625v-414.757813c0-1.601562 1.304687-2.90625 2.90625-2.90625h414.636719c1.601562 0 2.90625 1.304688 2.90625 2.90625zm0 0"/><path d="m319.945312 201.855469-156.019531-77.945313c-9.328125-4.660156-20.179687-4.179687-29.042969 1.300782-8.828124 5.453124-14.101562 14.90625-14.101562 25.277343v156.167969c0 10.371094 5.273438 19.820312 14.101562 25.277344 4.816407 2.976562 10.222657 4.480468 15.65625 4.480468 4.558594 0 9.128907-1.058593 13.378907-3.183593l156.027343-77.941407c.023438-.007812.046876-.019531.066407-.03125 10.101562-5.144531 16.371093-15.371093 16.367187-26.691406 0-11.316406-6.273437-21.539062-16.433594-26.710937zm-8.203124 37.09375-155.996094 77.925781c-3.671875 1.832031-7.769532 1.652344-11.25-.496094-3.453125-2.132812-5.429688-5.671875-5.429688-9.722656v-156.167969c0-4.050781 1.976563-7.589843 5.429688-9.726562 1.886718-1.164063 3.953125-1.753907 6.039062-1.753907 1.757813 0 3.53125.421876 5.214844 1.261719l155.964844 77.914063c3.996094 2.035156 6.378906 5.917968 6.378906 10.386718.003906 4.460938-2.371094 8.339844-6.351562 10.378907zm0 0"/></svg>