<svg id="icons" enable-background="new 0 0 64 64" height="512" viewBox="0 0 64 64" width="512" xmlns="http://www.w3.org/2000/svg"><path fill="white" d="m44.841 2.659c-4.791 0-9.313 1.747-12.841 4.938-3.527-3.191-8.05-4.938-12.841-4.938-5.117 0-9.929 1.993-13.547 5.611-7.47 7.47-7.47 19.624 0 27.095l25.681 25.683c.188.188.441.293.707.293s.52-.105.707-.293l25.681-25.683c7.47-7.471 7.47-19.625 0-27.095-3.618-3.618-8.43-5.611-13.547-5.611zm12.133 31.292-24.974 24.976-24.974-24.976c-6.689-6.69-6.689-17.577 0-24.267 3.24-3.24 7.55-5.025 12.133-5.025 4.448 0 8.631 1.694 11.837 4.756v3.905c0 .552-.448 1-1 1h-6.001c-.007 0-.013.004-.02.004-1.645.011-2.979 1.35-2.979 2.996 0 1.653 1.345 2.998 2.998 2.998h16.002c.002 0 .003.001.005.001.551 0 .998.447.998.998s-.447.998-.998.998c-.002 0-.003.001-.005.001h-5.996c-1.654 0-3 1.346-3 3v2.003h-6c-4.411 0-8 3.589-8 8s3.589 8 8 8c2.85 0 5.5-1.551 6.92-4h.16c1.42 2.449 4.07 4 6.92 4 4.411 0 8-3.589 8-8s-3.589-8-8-8h-6v-2.003c0-.552.448-1 1-1h6.002c.004 0 .006-.002.01-.002 1.648-.005 2.988-1.346 2.988-2.997s-1.34-2.991-2.988-2.997c-.004 0-.006-.002-.01-.002h-16.007c-.551 0-.998-.447-.998-.998s.447-.998.998-.998c.003 0 .006-.002.01-.002h5.991c1.654 0 3-1.346 3-3v-3.897c3.207-3.067 7.393-4.764 11.845-4.764 4.583 0 8.893 1.785 12.133 5.025 6.689 6.69 6.689 17.577 0 24.267zm-24.979-4.632c.002 0 .003.001.005.001s.003-.001.005-.001h6.995c3.309 0 6 2.691 6 6s-2.691 6-6 6c-2.298 0-4.423-1.347-5.414-3.43-.166-.349-.518-.57-.903-.57h-1.365c-.386 0-.737.222-.903.57-.991 2.083-3.116 3.43-5.414 3.43-3.309 0-6-2.691-6-6s2.691-6 6-6z"/><path fill="white" d="m24 33.319v1h-1c-.553 0-1 .447-1 1s.447 1 1 1h1v1c0 .553.447 1 1 1s1-.447 1-1v-1h1c.553 0 1-.447 1-1s-.447-1-1-1h-1v-1c0-.553-.447-1-1-1s-1 .448-1 1z"/><path fill="white" d="m37.044 36.319c.552 0 1-.447 1-1s-.448-1-1-1h-.011c-.552 0-.994.447-.994 1s.452 1 1.005 1z"/><path fill="white" d="m39.044 34.319c.552 0 1-.447 1-1s-.448-1-1-1h-.011c-.552 0-.994.447-.994 1s.452 1 1.005 1z"/><path d="m39.046 36.32h-.011c-.552 0-.994.447-.994 1s.452 1 1.005 1c.552 0 1-.447 1-1s-.448-1-1-1z"/><path d="m41.046 36.32c.552 0 1-.447 1-1s-.448-1-1-1h-.011c-.552 0-.994.447-.994 1s.452 1 1.005 1z"/><path fill="white" d="m51.999 18.059c-1.445-1.049-3.617-.889-4.891.393-.715.713-1.109 1.663-1.109 2.675s.395 1.962 1.108 2.674l4.185 4.185c.188.188.442.293.707.293.266 0 .52-.105.707-.293l4.185-4.184c.715-.714 1.108-1.663 1.108-2.675s-.394-1.961-1.105-2.672c-1.282-1.29-3.452-1.44-4.895-.396zm3.484 4.321-3.484 3.483-3.479-3.479c-.336-.335-.521-.782-.521-1.259s.186-.924.524-1.262c.334-.336.78-.521 1.258-.521.479 0 .928.187 1.268.526l.246.244c.389.387 1.02.387 1.408 0l.248-.246c.676-.675 1.852-.68 2.527 0 .336.335.521.782.521 1.259s-.185.925-.516 1.255z"/><path fill="white" d="m16.895 18.454c-1.28-1.289-3.452-1.439-4.895-.396-1.445-1.049-3.617-.889-4.891.393-.714.713-1.109 1.663-1.109 2.675s.395 1.962 1.108 2.674l4.185 4.185c.188.188.442.293.707.293.266 0 .52-.105.707-.293l4.185-4.184c.714-.714 1.108-1.663 1.108-2.675s-.394-1.961-1.105-2.672zm-1.411 3.926-3.484 3.483-3.479-3.479c-.335-.334-.521-.781-.521-1.258s.186-.924.524-1.262c.334-.336.78-.521 1.258-.521.479 0 .928.187 1.268.526l.246.244c.389.387 1.02.387 1.408 0l.248-.246c.676-.675 1.852-.68 2.527 0 .336.335.521.782.521 1.259s-.185.924-.516 1.254z"/></svg>