<svg id="icons" enable-background="new 0 0 64 64" height="512" viewBox="0 0 64 64" width="512" xmlns="http://www.w3.org/2000/svg">
    <path d="m57.68 8.979c-7.09-7.09-18.59-7.09-25.68 0-7.09-7.09-18.59-7.09-25.68 0-7.09 7.091-7.09 18.591 0 25.681l25.68 25.679 25.68-25.68c7.09-7.09 7.09-18.59 0-25.68z" fill="#9c5cb9"/>
    <path d="m16.18 19.159c1.09 1.08 1.09 2.85 0 3.93l-.239.25-3.941 3.94-3.94-3.94-.25-.25c-1.079-1.08-1.079-2.85 0-3.93 1.091-1.09 2.86-1.09 3.94 0l.25.24.25-.24c1.08-1.09 2.85-1.09 3.93 0z" fill="#da4453"/>
    <path d="m56.18 19.159c1.09 1.08 1.09 2.85 0 3.93l-.239.25-3.941 3.94-3.94-3.94-.25-.25c-1.079-1.08-1.079-2.85 0-3.93 1.08-1.09 2.851-1.09 3.94 0l.25.24.24-.24c1.09-1.09 2.86-1.09 3.94 0z" fill="#da4453"/>
    <path d="m39 28.319c3.87 0 7 3.13 7 7 0 3.869-3.13 7-7 7-2.79 0-5.19-1.641-6.32-4h-1.36c-1.13 2.359-3.53 4-6.32 4-3.87 0-7-3.131-7-7 0-3.87 3.13-7 7-7h7z" fill="#e6e9ed"/>
    <path d="m32 61.341c-.266 0-.52-.105-.707-.293l-25.681-25.683c-7.47-7.471-7.47-19.625 0-27.095 3.618-3.618 8.43-5.611 13.547-5.611 4.791 0 9.313 1.747 12.841 4.938 3.527-3.191 8.05-4.938 12.841-4.938 5.117 0 9.929 1.993 13.547 5.611 7.47 7.47 7.47 19.624 0 27.095l-25.681 25.683c-.187.187-.441.293-.707.293zm-12.841-56.682c-4.583 0-8.893 1.785-12.133 5.025-6.689 6.689-6.689 17.576 0 24.267l24.974 24.976 24.974-24.976c6.689-6.69 6.689-17.577 0-24.267-3.24-3.24-7.55-5.025-12.133-5.025s-8.893 1.785-12.134 5.025c-.391.391-1.023.391-1.414 0-3.241-3.24-7.551-5.025-12.134-5.025z"/>
    <path d="m39 43.319c-2.85 0-5.5-1.551-6.92-4h-.16c-1.42 2.449-4.07 4-6.92 4-4.411 0-8-3.589-8-8s3.589-8 8-8h14c4.411 0 8 3.589 8 8s-3.589 8-8 8zm-7.683-6h1.365c.386 0 .737.222.903.57.991 2.083 3.116 3.43 5.414 3.43 3.309 0 6-2.691 6-6s-2.691-6-6-6h-13.999c-3.309 0-6 2.691-6 6s2.691 6 6 6c2.298 0 4.423-1.347 5.414-3.43.166-.348.518-.57.903-.57z"/>
    <path d="m25 38.319c-.553 0-1-.447-1-1v-4c0-.553.447-1 1-1s1 .447 1 1v4c0 .553-.447 1-1 1z"/>
    <path d="m27 36.319h-4c-.553 0-1-.447-1-1s.447-1 1-1h4c.553 0 1 .447 1 1s-.447 1-1 1z"/>
    <path d="m37.044 36.319c-.553 0-1.005-.447-1.005-1s.442-1 .994-1h.011c.552 0 1 .447 1 1s-.448 1-1 1z"/>
    <path d="m39.044 34.319c-.553 0-1.005-.447-1.005-1s.442-1 .994-1h.011c.552 0 1 .447 1 1s-.448 1-1 1z"/>
    <path d="m39.046 38.32c-.553 0-1.005-.447-1.005-1s.442-1 .994-1h.011c.552 0 1 .447 1 1s-.448 1-1 1z"/>
    <path d="m41.046 36.32c-.553 0-1.005-.447-1.005-1s.442-1 .994-1h.011c.552 0 1 .447 1 1s-.448 1-1 1z"/>
    <path d="m32 29.32c-.553 0-1-.447-1-1v-3.004c0-.553.447-1 1-1s1 .447 1 1v3.004c0 .553-.447 1-1 1z"/>
    <path d="m32 26.316c-.553 0-1-.447-1-1 0-1.654 1.346-3 3-3 .553 0 1 .447 1 1s-.447 1-1 1c-.552 0-1 .448-1 1 0 .553-.447 1-1 1z"/>
    <path d="m40.002 24.315c-.553 0-1-.447-1-1s.447-1 1-1c.551 0 .998-.447.998-.998s-.447-.998-.998-.998c-.553 0-1-.447-1-1s.447-1 1-1c1.653 0 2.998 1.345 2.998 2.998s-1.345 2.998-2.998 2.998z"/>
    <path d="m23.995 20.318c-1.653 0-2.998-1.345-2.998-2.998s1.345-2.998 2.998-2.998c.553 0 1 .447 1 1s-.447 1-1 1c-.551 0-.998.447-.998.998s.447.998.998.998c.553 0 1 .447 1 1s-.447 1-1 1z"/>
    <path d="m40.002 20.318h-16.007c-.553 0-1-.447-1-1s.447-1 1-1h16.007c.553 0 1 .447 1 1s-.447 1-1 1z"/>
    <path d="m29.996 16.32h-6.001c-.553 0-1-.447-1-1s.447-1 1-1h6.001c.553 0 1 .447 1 1s-.447 1-1 1z"/>
    <path d="m40.002 24.316h-6.002c-.553 0-1-.447-1-1s.447-1 1-1h6.002c.553 0 1 .447 1 1s-.447 1-1 1z"/>
    <path d="m32 29.32c-.553 0-1-.447-1-1v-3.004c0-.553.447-1 1-1s1 .447 1 1v3.004c0 .553-.447 1-1 1z"/>
    <path d="m29.996 16.32c-.553 0-1-.447-1-1s.447-1 1-1c.552 0 1-.448 1-1 0-.553.447-1 1-1s1 .447 1 1c0 1.655-1.346 3-3 3z"/>
    <path d="m31.996 14.32c-.553 0-1-.447-1-1v-4.342c0-.553.447-1 1-1s1 .447 1 1v4.343c0 .552-.447.999-1 .999z"/>
    <path d="m51.999 28.277c-.265 0-.52-.105-.707-.293l-4.185-4.184c-.714-.712-1.108-1.662-1.108-2.674s.395-1.962 1.109-2.675c1.273-1.281 3.445-1.441 4.891-.393 1.443-1.044 3.613-.894 4.895.396.712.711 1.105 1.66 1.105 2.672s-.394 1.961-1.108 2.675l-4.185 4.184c-.187.187-.441.292-.707.292zm-2.218-8.934c-.478 0-.924.186-1.258.521-.339.338-.524.785-.524 1.262s.186.924.521 1.259l3.479 3.479 3.484-3.483c.331-.33.516-.777.516-1.254s-.185-.924-.521-1.259c-.676-.68-1.852-.675-2.527 0l-.248.246c-.389.387-1.02.387-1.408 0l-.246-.244c-.34-.341-.789-.527-1.268-.527z"/>
    <path d="m12 28.277c-.265 0-.52-.105-.707-.293l-4.185-4.184c-.713-.712-1.108-1.662-1.108-2.674s.395-1.962 1.109-2.675c1.274-1.281 3.446-1.441 4.891-.392 1.442-1.044 3.614-.894 4.895.396.711.71 1.105 1.659 1.105 2.671s-.394 1.961-1.108 2.675l-4.185 4.184c-.187.187-.441.292-.707.292zm-2.218-8.934c-.478 0-.924.186-1.258.521-.338.338-.524.785-.524 1.262s.186.924.521 1.259l3.479 3.478 3.484-3.483c.331-.33.516-.777.516-1.254s-.185-.924-.521-1.259c-.676-.68-1.852-.675-2.527 0l-.248.246c-.389.387-1.02.387-1.408 0l-.246-.244c-.34-.34-.789-.526-1.268-.526z"/>
</svg>
